<svg id="Ebene_1" data-name="Ebene 1" xmlns="http://www.w3.org/2000/svg" viewBox="0 0 569 89.73"><defs><style>.cls-1{fill:#cccccf;}.cls-2{fill:#1d1431;}.cls-3{fill:#2a275d;}.cls-4{fill:#e62d24;}</style></defs><rect class="cls-1" x="354" y="69.79" width="19.95" height="19.94"/><rect class="cls-1" x="393.01" y="69.79" width="19.94" height="19.94"/><rect class="cls-1" x="432.02" y="69.79" width="19.94" height="19.94"/><rect class="cls-2" x="471.03" y="69.79" width="19.95" height="19.94"/><rect class="cls-3" x="510.04" y="69.79" width="19.94" height="19.94"/><rect class="cls-4" x="549.05" y="69.79" width="19.95" height="19.94"/><path class="cls-4" d="M469.88,164.48a4.93,4.93,0,1,1-4.93-4.93,4.93,4.93,0,0,1,4.93,4.93" transform="translate(-19 -110.59)"/><path class="cls-2" d="M187.56,128.56h6.84v6.07c4-6.08,8.83-6.36,14.83-6.07v6.24c-1.81.23-3.59.33-5.32.68-5.39,1.11-9.21,4-9.51,9.42v24h-6.84Z" transform="translate(-19 -110.59)"/><path class="cls-2" d="M143.31,188.56s1.82-8.19,1.83-8.19c3.06,1.19,5.07,2.16,7.66,2.62,9.64,1.75,16.17-3.62,16.22-13.33,0-6.2.19-15.09,0-21.28-.45-12.11-10.83-16-18.73-12-6.23,3.18-8.52,12.39-5.09,19.26,3.18,6.38,10.68,8.88,17.47,5.78,1.24-.56,2.4-1.28,4-2.12,0,1,0,7.61,0,7.63s-1,.73-5.38,1.91A19.68,19.68,0,0,1,136.58,151c-.68-10.36,4-18.48,12.55-21.64,12.6-4.68,26,3.73,26.63,17.11.4,7.85.44,18.44,0,26.29-.55,9.1-7.65,16.67-16.76,17.12-5.06.25-10.07-.56-15.64-1.31,0,0,0,0,0,0" transform="translate(-19 -110.59)"/><path class="cls-2" d="M224.3,155.1l-3-5.4,18.77-10.62c-2.22-3.73-7.57-5.27-12.37-3.58-5.91,2.08-9.38,8.42-8.51,15.54.75,6.14,5.79,11.23,11.53,11.61,7,.46,11.28-3.38,13.81-12.54l6.91,1.12c-2.06,11.53-9.81,18.64-19.94,18.54-9.49-.09-18.27-7.94-19.57-17.5-1.46-10.85,4.68-20.69,14.65-23.46,9.66-2.69,18.88,1.87,23.45,11.86L224.3,155.1" transform="translate(-19 -110.59)"/><path class="cls-2" d="M534.54,155.1c-1-1.86-1.95-3.51-3-5.4l18.77-10.62c-2.22-3.73-7.57-5.27-12.37-3.58-5.92,2.08-9.39,8.42-8.51,15.54.75,6.14,5.79,11.23,11.53,11.61,7,.46,11.27-3.38,13.81-12.54l6.91,1.12c-2.06,11.53-9.81,18.64-19.94,18.54-9.49-.09-18.27-7.94-19.57-17.5-1.47-10.85,4.68-20.69,14.65-23.46,9.66-2.69,18.88,1.87,23.45,11.86L534.54,155.1" transform="translate(-19 -110.59)"/><path class="cls-2" d="M92,148.88c0,11.53-8.9,20.69-20,20.67s-19.82-9.16-19.81-20.82c0-11.38,8.85-20.56,19.81-20.55,11.17,0,20,9.17,20,20.7m-32.59-.25c0,7.61,5.18,13.73,11.91,14,6.35.29,11.63-4.15,13-10.91,1.41-7-2.13-13.91-8.25-16.11-8.25-3-16.62,3.55-16.64,13" transform="translate(-19 -110.59)"/><path class="cls-2" d="M450.51,148.88c0,11.53-8.89,20.69-20.05,20.67s-19.82-9.16-19.81-20.82c0-11.38,8.86-20.56,19.82-20.55,11.17,0,20,9.17,20,20.7m-32.58-.25c0,7.61,5.18,13.73,11.9,14,6.35.29,11.63-4.15,13-10.91,1.4-7-2.13-13.91-8.25-16.11-8.26-3-16.63,3.55-16.64,13" transform="translate(-19 -110.59)"/><path class="cls-2" d="M318.35,129.07v6.51H305.43a19.88,19.88,0,0,0-5,.31c-1.6.55-2.5,1.17-2.54,2.52a4.28,4.28,0,0,0,1.91,3.54c1.16,1,2.84,1.4,4.29,2.06,3.63,1.66,7.38,3.11,10.86,5,4.54,2.52,6.17,6.2,5.32,11-.8,4.5-3.85,7.06-8.07,7.79a98.76,98.76,0,0,1-12.54,1c-2.9.12-5.81,0-8.92,0v-6.8h15.11c4.6,0,7-1.05,7.16-3.36.23-3.68-3-4.36-5.42-5.5-3.34-1.57-6.84-2.79-10.17-4.38-4.49-2.15-7.34-5.46-6.81-10.83.51-5.2,4.19-8.6,10.29-8.87,5.7-.25,11.42-.05,17.44-.05" transform="translate(-19 -110.59)"/><path class="cls-2" d="M285.18,129.07v6.51H272.26a20,20,0,0,0-5,.31c-1.59.55-2.49,1.17-2.53,2.52a4.28,4.28,0,0,0,1.91,3.54c1.17,1,2.83,1.4,4.29,2.06,3.63,1.66,7.37,3.11,10.85,5,4.55,2.52,6.18,6.2,5.33,11-.8,4.5-3.85,7.06-8.07,7.79a98.76,98.76,0,0,1-12.54,1c-2.9.12-5.81,0-8.92,0v-6.8h15.11c4.6,0,7-1.05,7.16-3.36.23-3.68-3-4.36-5.43-5.5-3.33-1.57-6.84-2.79-10.16-4.38-4.49-2.15-7.34-5.46-6.81-10.83.51-5.2,4.19-8.6,10.28-8.87,5.71-.25,11.42-.05,17.45-.05" transform="translate(-19 -110.59)"/><path class="cls-2" d="M515,168.86h-6.77V158.27c0-4.2,0-8.39,0-12.58-.06-6.33-4-10.63-9.76-10.62s-9.68,4.24-9.74,10.62c-.06,7.58,0,15.42,0,23.17h-7c0-7.85,0-16,0-23.83a17.08,17.08,0,0,1,.51-3.54c2-8.93,8.57-13.92,17.53-13.29,8.44.59,14.64,6.54,15.09,15.36.42,8.26.09,16.75.09,25.3" transform="translate(-19 -110.59)"/><path class="cls-2" d="M379.41,168.86h-6.77V158.27c0-4.2,0-8.39,0-12.58-.05-6.33-4-10.63-9.76-10.62s-9.67,4.24-9.73,10.62c-.06,7.58,0,15.42,0,23.17h-7c0-7.85,0-16,0-23.83a17.1,17.1,0,0,1,.52-3.54c2-8.93,8.57-13.92,17.53-13.29,8.44.59,14.64,6.54,15.09,15.36.42,8.26.09,16.75.09,25.3" transform="translate(-19 -110.59)"/><path class="cls-2" d="M129.38,168.86h-6.76V158.27c0-4.2,0-8.39,0-12.58-.06-6.33-4-10.63-9.76-10.62s-9.68,4.24-9.73,10.62c-.07,7.58,0,15.42,0,23.17h-7c0-7.85,0-16,0-23.83a16.45,16.45,0,0,1,.52-3.54c2-8.93,8.56-13.92,17.53-13.29,8.43.59,14.63,6.54,15.08,15.36.42,8.26.09,16.75.09,25.3" transform="translate(-19 -110.59)"/><path class="cls-2" d="M396.25,168.86H389V126.13c0-9.9,3.78-14.24,13.64-15.41a64.36,64.36,0,0,1,7.1,0v6.58c-4.23.15-9.59-.59-12.37,3.73-1.41,2.18-1,7.78-1.08,7.94H409.7v6.69H396.25Z" transform="translate(-19 -110.59)"/><path class="cls-2" d="M569.21,118.37h7v10.48H588v6.67H576.54c0,7-.22,13.75.1,20.48.13,2.86,2.26,4.87,5.24,5.47a26.44,26.44,0,0,0,6.12.59c0,1.92,0,4.75,0,6.8-10.07,0-19.13-2.9-18.82-15.16.29-11.67.06-23.37.06-35.33" transform="translate(-19 -110.59)"/><path class="cls-2" d="M45.75,129.17v6.37c-14.32,0-19.71,4.68-19.62,13.34.08,8.3,6.08,13.34,19.59,13.34v6.64c-9.08,0-17.24-.76-22.94-8.52-4.79-6.52-4.87-13.79-1.15-20.88,4.24-8.08,12.12-10.29,24.12-10.29" transform="translate(-19 -110.59)"/><rect class="cls-2" x="309.88" y="18.52" width="6.69" height="39.74"/><path class="cls-2" d="M332.24,113.29a4.33,4.33,0,0,1,0,8.65,4.29,4.29,0,0,1-4.34-4.35,4.18,4.18,0,0,1,4.33-4.3" transform="translate(-19 -110.59)"/></svg>